<svg width="32" height="32" viewBox="0 0 32 32" fill="none" xmlns="http://www.w3.org/2000/svg">
<rect width="32" height="32" rx="16" fill="#007BFF"/>
<path d="M22.0672 15.1922C22.0091 15.2503 21.9402 15.2964 21.8643 15.3279C21.7884 15.3593 21.7071 15.3755 21.625 15.3755C21.5428 15.3755 21.4615 15.3593 21.3856 15.3279C21.3098 15.2964 21.2408 15.2503 21.1828 15.1922L16.625 10.6336V22.875C16.625 23.0408 16.5591 23.1997 16.4419 23.3169C16.3247 23.4342 16.1657 23.5 16 23.5C15.8342 23.5 15.6753 23.4342 15.558 23.3169C15.4408 23.1997 15.375 23.0408 15.375 22.875V10.6336L10.8172 15.1922C10.6999 15.3095 10.5408 15.3754 10.375 15.3754C10.2091 15.3754 10.0501 15.3095 9.93279 15.1922C9.81552 15.0749 9.74963 14.9159 9.74963 14.75C9.74963 14.5842 9.81552 14.4251 9.93279 14.3078L15.5578 8.68282C15.6158 8.62471 15.6848 8.57861 15.7606 8.54715C15.8365 8.5157 15.9178 8.49951 16 8.49951C16.0821 8.49951 16.1634 8.5157 16.2393 8.54715C16.3152 8.57861 16.3841 8.62471 16.4422 8.68282L22.0672 14.3078C22.1253 14.3659 22.1714 14.4348 22.2028 14.5107C22.2343 14.5865 22.2505 14.6679 22.2505 14.75C22.2505 14.8321 22.2343 14.9135 22.2028 14.9893C22.1714 15.0652 22.1253 15.1341 22.0672 15.1922Z" fill="white"/>
</svg>
