<svg width="21" height="21" viewBox="0 0 21 21" fill="none" xmlns="http://www.w3.org/2000/svg">
<rect x="0.5" y="0.5" width="20" height="20" rx="10" fill="black"/>
<path d="M7.20739 14.5V13.1705L10.3139 10.294C10.5781 10.0384 10.7997 9.80824 10.9787 9.60369C11.1605 9.39915 11.2983 9.19886 11.392 9.00284C11.4858 8.80398 11.5327 8.58949 11.5327 8.35938C11.5327 8.10369 11.4744 7.88352 11.358 7.69886C11.2415 7.51136 11.0824 7.3679 10.8807 7.26847C10.679 7.16619 10.4503 7.11506 10.1946 7.11506C9.92756 7.11506 9.6946 7.16903 9.49574 7.27699C9.29688 7.38494 9.14347 7.53977 9.03551 7.74148C8.92756 7.94318 8.87358 8.18324 8.87358 8.46165H7.12216C7.12216 7.89062 7.25142 7.39489 7.50994 6.97443C7.76847 6.55398 8.13068 6.22869 8.59659 5.99858C9.0625 5.76847 9.59943 5.65341 10.2074 5.65341C10.8324 5.65341 11.3764 5.7642 11.8395 5.9858C12.3054 6.20455 12.6676 6.50852 12.9261 6.89773C13.1847 7.28693 13.3139 7.73295 13.3139 8.2358C13.3139 8.56534 13.2486 8.89062 13.1179 9.21165C12.9901 9.53267 12.7614 9.8892 12.4318 10.2812C12.1023 10.6705 11.6378 11.1378 11.0384 11.6832L9.7642 12.9318V12.9915H13.429V14.5H7.20739Z" fill="white"/>
</svg>
