<svg width="21" height="21" viewBox="0 0 21 21" fill="none" xmlns="http://www.w3.org/2000/svg">
<rect x="0.5" y="0.5" width="20" height="20" rx="10" fill="black"/>
<path d="M10.4332 14.6193C9.79688 14.6193 9.23011 14.5099 8.73295 14.2912C8.23864 14.0696 7.84801 13.7656 7.56108 13.3793C7.27699 12.9901 7.13068 12.5412 7.12216 12.0327H8.98011C8.99148 12.2457 9.06108 12.4332 9.18892 12.5952C9.3196 12.7543 9.4929 12.8778 9.70881 12.9659C9.92472 13.054 10.1676 13.098 10.4375 13.098C10.7188 13.098 10.9673 13.0483 11.1832 12.9489C11.3991 12.8494 11.5682 12.7116 11.6903 12.5355C11.8125 12.3594 11.8736 12.1562 11.8736 11.9261C11.8736 11.6932 11.8082 11.4872 11.6776 11.3082C11.5497 11.1264 11.3651 10.9844 11.1236 10.8821C10.8849 10.7798 10.6009 10.7287 10.2713 10.7287H9.45739V9.37358H10.2713C10.5497 9.37358 10.7955 9.32528 11.0085 9.22869C11.2244 9.1321 11.392 8.99858 11.5114 8.82812C11.6307 8.65483 11.6903 8.45312 11.6903 8.22301C11.6903 8.00426 11.6378 7.8125 11.5327 7.64773C11.4304 7.48011 11.2855 7.34943 11.098 7.25568C10.9134 7.16193 10.6974 7.11506 10.4503 7.11506C10.2003 7.11506 9.97159 7.16051 9.7642 7.25142C9.55682 7.33949 9.39062 7.46591 9.26562 7.63068C9.14062 7.79545 9.07386 7.98864 9.06534 8.21023H7.29688C7.3054 7.70739 7.44886 7.2642 7.72727 6.88068C8.00568 6.49716 8.38068 6.19744 8.85227 5.98153C9.3267 5.76278 9.86222 5.65341 10.4588 5.65341C11.0611 5.65341 11.5881 5.76278 12.0398 5.98153C12.4915 6.20028 12.8423 6.49574 13.0923 6.8679C13.3452 7.23722 13.4702 7.65199 13.4673 8.11222C13.4702 8.60085 13.3182 9.00852 13.0114 9.33523C12.7074 9.66193 12.3111 9.86932 11.8224 9.95739V10.0256C12.4645 10.108 12.9531 10.331 13.2884 10.6946C13.6264 11.0554 13.794 11.5071 13.7912 12.0497C13.794 12.5469 13.6506 12.9886 13.3608 13.375C13.0739 13.7614 12.6776 14.0653 12.1719 14.2869C11.6662 14.5085 11.0866 14.6193 10.4332 14.6193Z" fill="white"/>
</svg>
